<svg width="64" height="64" viewBox="0 0 64 64" fill="none" xmlns="http://www.w3.org/2000/svg">
  <circle cx="32" cy="32" r="30" fill="#E5E7EB" stroke="#9CA3AF" stroke-width="2"/>
  <path d="M32 18C24.268 18 18 24.268 18 32C18 39.732 24.268 46 32 46C39.732 46 46 39.732 46 32C46 24.268 39.732 18 32 18ZM32 42C26.486 42 22 37.514 22 32C22 26.486 26.486 22 32 22C37.514 22 42 26.486 42 32C42 37.514 37.514 42 32 42Z" fill="#6B7280"/>
  <path d="M32 26C28.686 26 26 28.686 26 32C26 35.314 28.686 38 32 38C35.314 38 38 35.314 38 32C38 28.686 35.314 26 32 26ZM32 35C30.346 35 29 33.654 29 32C29 30.346 30.346 29 32 29C33.654 29 35 30.346 35 32C35 33.654 33.654 35 32 35Z" fill="#9CA3AF"/>
  <text x="32" y="37" font-family="Arial, sans-serif" font-size="12" fill="#4B5563" text-anchor="middle" font-weight="bold">?</text>
</svg>
